<svg viewBox="0 0 600 300">
  <g class="visx-group" transform="translate(100, 10)">
    <g class="visx-group" transform="translate(0, 0)">
      <g class="visx-group chart-data" transform="translate(0, 25)">
        
        <rect class="visx-bar" x="222" y="0" width="18" height="3" fill="#A9A9A9"></rect>
        <circle class="visx-circle" r="8" cx="214" cy="1" fill="#A9A9A9"></circle>
        <text x="152" y="6" fill="#000000" style="font-size: 13px;">-2.04%</text>
        
        <rect class="visx-bar" x="239" y="40" width="1" height="3" fill="#A9A9A9"></rect>
        <circle class="visx-circle" r="8" cx="231" cy="41" fill="#A9A9A9"></circle>
        <text x="169" y="46" fill="#000000" style="font-size: 13px;">-0.1%</text>
        
        <rect class="visx-bar" x="215" y="80" width="25" height="3" fill="#742867"></rect>
        <circle class="visx-circle" r="8" cx="207" cy="81" fill="#742867"></circle>
        <text x="145" y="86" fill="#000000" style="font-size: 13px;">-2.88%</text>
        
        <rect class="visx-bar" x="147" y="120" width="93" height="3" fill="#742867"></rect>
        <circle class="visx-circle" r="8" cx="139" cy="121" fill="#742867"></circle>
        <text x="77" y="126" fill="#000000" style="font-size: 13px;">-10.7%</text>
        
        <rect class="visx-bar" x="168" y="160" width="72" height="3" fill="#742867"></rect>
        <circle class="visx-circle" r="8" cx="160" cy="161" fill="#742867"></circle>
        <text x="98" y="166" fill="#000000" style="font-size: 13px;">-8.32%</text>
      </g>
    </g>
    <g class="visx-group visx-axis visx-axis-left" transform="translate(0, 0)">
      <g class="visx-group visx-axis-tick" transform="translate(0, 0)">
        <line class="visx-line" x1="0" y1="26" x2="-4" y2="26" fill="transparent" shape-rendering="crispEdges" stroke="#444" stroke-width="1" stroke-linecap="square"></line>
        <svg x="0" y="0.33em" font-size="13" style="overflow: visible;">
        <text transform="" x="-8" y="26" fill="#444" font-size="13" text-anchor="end">
            <tspan x="-8" dy="0em">55+</tspan>
          </text></svg>
      </g>
      <g class="visx-group visx-axis-tick" transform="translate(0, 0)">
        <line class="visx-line" x1="0" y1="66" x2="-4" y2="66" fill="transparent" shape-rendering="crispEdges" stroke="#444" stroke-width="1" stroke-linecap="square"></line><svg x="0" y="0.33em" font-size="13" style="overflow: visible;"><text transform="" x="-8" y="66" fill="#444" font-size="13" text-anchor="end">
            <tspan x="-8" dy="0em">35-54</tspan>
          </text></svg>
      </g>
      <g class="visx-group visx-axis-tick" transform="translate(0, 0)">
        <line class="visx-line" x1="0" y1="106" x2="-4" y2="106" fill="transparent" shape-rendering="crispEdges" stroke="#444" stroke-width="1" stroke-linecap="square"></line><svg x="0" y="0.33em" font-size="13" style="overflow: visible;"><text transform="" x="-8" y="106" fill="#444" font-size="13" text-anchor="end">
            <tspan x="-8" dy="0em">25-34</tspan>
          </text></svg>
      </g>
      <g class="visx-group visx-axis-tick" transform="translate(0, 0)">
        <line class="visx-line" x1="0" y1="146" x2="-4" y2="146" fill="transparent" shape-rendering="crispEdges" stroke="#444" stroke-width="1" stroke-linecap="square"></line><svg x="0" y="0.33em" font-size="13" style="overflow: visible;"><text transform="" x="-8" y="146" fill="#444" font-size="13" text-anchor="end">
            <tspan x="-8" dy="0em">15-24</tspan>
          </text></svg>
      </g>
      <g class="visx-group visx-axis-tick" transform="translate(0, 0)">
        <line class="visx-line" x1="0" y1="186" x2="-4" y2="186" fill="transparent" shape-rendering="crispEdges" stroke="#444" stroke-width="1" stroke-linecap="square"></line>
        <svg x="0" y="0.33em" font-size="13" style="overflow: visible;">
          <text transform="" x="-8" y="186" fill="#444" font-size="13" text-anchor="end">
            <tspan x="-8" dy="0em">0-14</tspan>
          </text></svg>
      </g>
      <line class="visx-line visx-axis-line" x1="0" y1="0.5" x2="0" y2="236" fill="transparent" shape-rendering="crispEdges" stroke="#444" stroke-width="1"></line>
    </g>
    <g class="visx-group visx-axis visx-axis-bottom" transform="translate(0, 235)">
      <g class="visx-group visx-axis-tick" transform="translate(0, 0)">
        <line class="visx-line" x1="66" y1="0" x2="66" y2="8" fill="transparent" shape-rendering="crispEdges" stroke="#444" stroke-width="1" stroke-linecap="square"></line><svg x="0" y="0.33em" font-size="13" style="overflow: visible;"><text transform="" x="66" y="21" fill="#444" font-size="13" text-anchor="middle">
            <tspan x="66" dy="0em">-20%</tspan>
          </text></svg>
      </g>
      <g class="visx-group visx-axis-tick" transform="translate(0, 0)">
        <line class="visx-line" x1="153" y1="0" x2="153" y2="8" fill="transparent" shape-rendering="crispEdges" stroke="#444" stroke-width="1" stroke-linecap="square"></line><svg x="0" y="0.33em" font-size="13" style="overflow: visible;"><text transform="" x="153" y="21" fill="#444" font-size="13" text-anchor="middle">
            <tspan x="153" dy="0em">-10%</tspan>
          </text></svg>
      </g>
      <g class="visx-group visx-axis-tick" transform="translate(0, 0)">
        <line class="visx-line" x1="240" y1="0" x2="240" y2="8" fill="transparent" shape-rendering="crispEdges" stroke="#444" stroke-width="1" stroke-linecap="square"></line><svg x="0" y="0.33em" font-size="13" style="overflow: visible;"><text transform="" x="240" y="21" fill="#444" font-size="13" text-anchor="middle">
            <tspan x="240" dy="0em">0%</tspan>
          </text></svg>
      </g>
      <g class="visx-group visx-axis-tick" transform="translate(0, 0)">
        <line class="visx-line" x1="327" y1="0" x2="327" y2="8" fill="transparent" shape-rendering="crispEdges" stroke="#444" stroke-width="1" stroke-linecap="square"></line><svg x="0" y="0.33em" font-size="13" style="overflow: visible;"><text transform="" x="327" y="21" fill="#444" font-size="13" text-anchor="middle">
            <tspan x="327" dy="0em">10%</tspan>
          </text></svg>
      </g>
      <g class="visx-group visx-axis-tick" transform="translate(0, 0)">
        <line class="visx-line" x1="414" y1="0" x2="414" y2="8" fill="transparent" shape-rendering="crispEdges" stroke="#444" stroke-width="1" stroke-linecap="square"></line><svg x="0" y="0.33em" font-size="13" style="overflow: visible;"><text transform="" x="414" y="21" fill="#444" font-size="13" text-anchor="middle">
            <tspan x="414" dy="0em">20%</tspan>
          </text></svg>
      </g>
      <line class="visx-line visx-axis-line" x1="0.5" y1="0" x2="480.5" y2="0" fill="transparent" shape-rendering="crispEdges" stroke="#444" stroke-width="1"></line><svg x="0" y="0" font-size="10" style="overflow: visible;"><text class="visx-axis-label bar-chart-xaxis-label" x="240" y="51" font-family="Arial" font-size="10" fill="#222" text-anchor="middle">
          <tspan x="240" dy="0em">Percent Change</tspan>
        </text></svg>
    </g>
  </g>
  <line x1="340" x2="340" y1="245" y2="10" stroke="#444"></line>
</svg>